<svg width="128" height="128" viewBox="0 0 128 128" fill="none" xmlns="http://www.w3.org/2000/svg">
<g clip-path="url(#clip0_506_335)">
<path fill-rule="evenodd" clip-rule="evenodd" d="M70.0702 20.57C73.1794 25.4267 71.7625 31.8846 66.9058 34.994C62.0492 38.1031 55.5918 36.6868 52.4823 31.8305C49.3729 26.9738 50.7889 20.5157 55.6454 17.4061C60.5021 14.2966 66.9607 15.7132 70.0702 20.57ZM66.5526 22.8221C64.6869 19.908 60.8115 19.058 57.8975 20.9237C54.9837 22.7895 54.1343 26.6644 55.9999 29.5784C57.8656 32.492 61.7398 33.3417 64.6537 31.4765C67.5677 29.6108 68.418 25.7361 66.5526 22.8221Z" fill="#EEEEEE"/>
<rect x="54.0593" y="31.2317" width="5" height="37.1028" transform="rotate(40 54.0593 31.2317)" fill="#EEEEEE"/>
<rect x="27.6487" y="44.7457" width="5" height="25" transform="rotate(-6.655 27.6487 44.7457)" fill="#EEEEEE"/>
<path fill-rule="evenodd" clip-rule="evenodd" d="M31.572 24.8589C37.1567 26.2961 40.5189 31.9889 39.0819 37.5738C37.6447 43.1583 31.9527 46.5206 26.368 45.0839C20.7832 43.6469 17.4201 37.9546 18.8569 32.3697C20.2939 26.7848 25.987 23.4218 31.572 24.8589ZM30.5312 28.9039C27.1802 28.0417 23.7641 30.0596 22.9019 33.4105C22.04 36.7614 24.058 40.1767 27.4088 41.0389C30.7595 41.9008 34.1745 39.8835 35.0369 36.533C35.8991 33.1821 33.8819 29.7663 30.5312 28.9039Z" fill="#EEEEEE"/>
<path fill-rule="evenodd" clip-rule="evenodd" d="M37.1917 65.7052C42.7764 67.1424 46.1386 72.8352 44.7016 78.42C43.2644 84.0046 37.5724 87.3669 31.9877 85.9302C26.4028 84.4932 23.0398 78.8009 24.4766 73.216C25.9136 67.631 31.6067 64.2681 37.1917 65.7052ZM36.1509 69.7502C32.7999 68.888 29.3838 70.9058 28.5216 74.2568C27.6597 77.6077 29.6776 81.023 33.0285 81.8852C36.3792 82.7471 39.7942 80.7298 40.6566 77.3792C41.5188 74.0284 39.5016 70.6126 36.1509 69.7502Z" fill="#EEEEEE"/>
<rect x="49.7444" y="81.3643" width="16" height="5" transform="rotate(40 49.7444 81.3643)" fill="#EEEEEE"/>
<path d="M109.58 22.4605C115.939 27.7966 116.768 37.2777 111.432 43.637L72.7728 89.7097C68.932 86.861 63.5688 86.9885 59.1364 89.6896L57.0732 87.9584L100.955 35.6624C101.621 34.8675 101.518 33.6823 100.723 33.0153C99.9283 32.3484 98.7431 32.4523 98.0761 33.2469L54.1945 85.5429L52.1642 83.8393C54.2066 78.8537 53.4169 73.4439 49.7556 70.3716L60.4513 57.6249L60.6709 67.4481L60.7004 68.7757L61.5541 67.7583L62.3716 66.7856L62.4499 66.6908L62.4768 66.5706L65.8435 51.1988L88.4032 24.3132C93.7393 17.9539 103.22 17.1244 109.58 22.4605Z" fill="#EEEEEE"/>
<path d="M58.0544 95.9819C57.7823 96.278 57.5125 96.5807 57.2497 96.8938C53.8637 100.929 51.9992 105.532 51.7908 109.545C45.4013 110.525 38.931 113.247 33.116 117.57L32.1143 116.729L43.439 103.233C44.4453 103.714 45.6856 103.478 46.4357 102.585C47.3249 101.525 47.1871 99.9444 46.1276 99.055C45.0678 98.1656 43.4867 98.304 42.5973 99.3638C41.8475 100.258 41.8318 101.519 42.4799 102.427L31.1545 115.924L30.1528 115.083C33.5118 108.384 35.0611 101.292 34.791 94.6366C38.5361 93.6155 42.4947 91.045 45.7112 87.2118C45.9739 86.8987 46.2252 86.5804 46.4695 86.261L58.0544 95.9819Z" fill="#EEEEEE"/>
</g>
<defs>
<clipPath id="clip0_506_335">
<path d="M0 20C0 8.95431 8.95431 0 20 0H108C119.046 0 128 8.95431 128 20V108C128 119.046 119.046 128 108 128H20C8.95431 128 0 119.046 0 108V20Z" fill="white"/>
</clipPath>
</defs>
</svg>
