<svg width="128" height="128" viewBox="0 0 128 128" fill="none" xmlns="http://www.w3.org/2000/svg">
<g clip-path="url(#clip0_501_3)">
<path fill-rule="evenodd" clip-rule="evenodd" d="M71.0702 20.57C74.1794 25.4267 72.7625 31.8846 67.9058 34.994C63.0492 38.1031 56.5918 36.6868 53.4823 31.8305C50.3729 26.9738 51.7889 20.5157 56.6453 17.4061C61.5021 14.2966 67.9607 15.7132 71.0702 20.57ZM67.5526 22.8221C65.6869 19.908 61.8115 19.058 58.8974 20.9237C55.9837 22.7895 55.1343 26.6644 56.9999 29.5784C58.8656 32.492 62.7398 33.3417 65.6537 31.4765C68.5677 29.6108 69.418 25.7361 67.5526 22.8221Z" fill="#333333"/>
<rect x="55.0593" y="31.2317" width="5" height="37.1028" transform="rotate(40 55.0593 31.2317)" fill="#333333"/>
<rect x="28.6487" y="44.7457" width="5" height="25" transform="rotate(-6.655 28.6487 44.7457)" fill="#333333"/>
<path fill-rule="evenodd" clip-rule="evenodd" d="M32.572 24.8589C38.1567 26.2961 41.5189 31.9889 40.0819 37.5738C38.6447 43.1583 32.9527 46.5206 27.368 45.0839C21.7831 43.6469 18.4201 37.9546 19.8569 32.3697C21.2939 26.7848 26.987 23.4218 32.572 24.8589ZM31.5312 28.9039C28.1802 28.0417 24.7641 30.0596 23.9019 33.4105C23.0399 36.7614 25.0579 40.1767 28.4088 41.0389C31.7595 41.9008 35.1745 39.8835 36.0369 36.533C36.8991 33.1821 34.8819 29.7663 31.5312 28.9039Z" fill="#333333"/>
<path fill-rule="evenodd" clip-rule="evenodd" d="M38.1917 65.7052C43.7764 67.1424 47.1386 72.8352 45.7016 78.42C44.2644 84.0046 38.5724 87.3669 32.9877 85.9302C27.4028 84.4932 24.0398 78.8009 25.4766 73.216C26.9136 67.631 32.6067 64.2681 38.1917 65.7052ZM37.1509 69.7502C33.7999 68.888 30.3838 70.9058 29.5216 74.2568C28.6596 77.6077 30.6776 81.023 34.0285 81.8852C37.3792 82.7471 40.7942 80.7298 41.6566 77.3792C42.5188 74.0284 40.5016 70.6126 37.1509 69.7502Z" fill="#333333"/>
<rect x="50.7444" y="81.3643" width="16" height="5" transform="rotate(40 50.7444 81.3643)" fill="#333333"/>
<path d="M110.58 22.4605C116.939 27.7966 117.768 37.2777 112.432 43.637L73.7728 89.7097C69.9319 86.861 64.5688 86.9885 60.1364 89.6896L58.0731 87.9584L101.955 35.6624C102.621 34.8675 102.518 33.6823 101.723 33.0153C100.928 32.3484 99.7431 32.4523 99.076 33.2469L55.1945 85.5429L53.1642 83.8393C55.2065 78.8537 54.4169 73.4439 50.7555 70.3716L61.4513 57.6249L61.6709 67.4481L61.7004 68.7757L62.5541 67.7583L63.3715 66.7856L63.4499 66.6908L63.4768 66.5706L66.8434 51.1988L89.4031 24.3132C94.7393 17.9539 104.22 17.1244 110.58 22.4605Z" fill="#333333"/>
<path d="M59.0544 95.9819C58.7823 96.278 58.5124 96.5807 58.2497 96.8938C54.8636 100.929 52.9991 105.532 52.7908 109.545C46.4013 110.525 39.931 113.247 34.116 117.57L33.1143 116.729L44.439 103.233C45.4453 103.714 46.6856 103.478 47.4357 102.585C48.3249 101.525 48.1871 99.9444 47.1276 99.055C46.0677 98.1656 44.4866 98.304 43.5973 99.3638C42.8474 100.258 42.8318 101.519 43.4799 102.427L32.1545 115.924L31.1528 115.083C34.5117 108.384 36.0611 101.292 35.791 94.6366C39.5361 93.6155 43.4947 91.045 46.7112 87.2118C46.9739 86.8987 47.2251 86.5804 47.4695 86.261L59.0544 95.9819Z" fill="#333333"/>
</g>
<defs>
<clipPath id="clip0_501_3">
<path d="M0 20C0 8.95431 8.95431 0 20 0H108C119.046 0 128 8.95431 128 20V108C128 119.046 119.046 128 108 128H20C8.95431 128 0 119.046 0 108V20Z" fill="white"/>
</clipPath>
</defs>
</svg>
